<svg xmlns="http://www.w3.org/2000/svg" viewBox="0 0 159.39 601.08"><defs><style>.cls-1{fill:#6868aa;}.cls-2{fill:#9999cb;}.cls-3{fill:#6750a1;}</style></defs><title>rocket_1</title><g id="Layer_2" data-name="Layer 2"><g id="Layer_1-2" data-name="Layer 1"><path class="cls-1" d="M100.14,316.3,80.43,340h-.7L59.3,316.3S82.2,372,38.79,598.15l32.88.93,13.26.5,33.54,1.5C75.07,375,100.14,316.3,100.14,316.3Z"/><path class="cls-2" d="M86.58,334.48l-8,4.28-.4-4.45-7.72-1.43s12.78,223.71-19.41,258l1.49,7.43,23.48,1.85,4.28-.92,22.63.3,5.16-1C75.94,564.21,86.58,334.48,86.58,334.48Z"/><path class="cls-3" d="M79.69,246c-18.86,0-34.15,6.62-34.15,30.73s34.15,75.13,34.15,75.13,34.16-51,34.16-75.13S98.56,246,79.69,246Zm0,91s-23.57-48.4-23.57-65,10.55-21.21,23.57-21.21,23.58,4.57,23.58,21.21S79.69,337,79.69,337Z"/><path class="cls-3" d="M93.35,264c0,9.63-13.66,41.16-13.66,41.16S66,273.65,66,264s6.11-12.29,13.65-12.29S93.35,254.38,93.35,264Z"/><path class="cls-3" d="M107.33,245.55H51.87a1.32,1.32,0,0,0-1.31,1.32V253a1.31,1.31,0,0,0,1.31,1.31h55.46a1.31,1.31,0,0,0,1.32-1.31v-6.14A1.32,1.32,0,0,0,107.33,245.55Z"/><path class="cls-3" d="M134.59,200.74a109.32,109.32,0,0,0-11.94-11.21A354.81,354.81,0,0,0,127,133.05,249.77,249.77,0,0,0,125,102a260,260,0,0,0-5.85-30.91C109.44,32.54,91.36,0,79.69,0S50,32.54,40.2,71.06a252.81,252.81,0,0,0-7.81,62,354.81,354.81,0,0,0,4.35,56.48A109.32,109.32,0,0,0,24.8,200.74C8.58,218.49,0,240.1,0,263.22v1.16l.52,1a8.91,8.91,0,0,0,7.08,5h.51c3.16,0,6-1.9,8.54-5.66A45.63,45.63,0,0,0,19.28,260c4.2-8.24,9.94-19.52,32.08-19.52h0c.52,1.07,1,2.1,1.57,3.12l1.2,2.28H70.64l1.07,13.65.05,4.45a6.37,6.37,0,0,0,3.73,5.83,6.59,6.59,0,0,0,2.89.66h2.84a6.41,6.41,0,0,0,6.41-6.41v-1.91l.06-2.76,1.06-13.51h16.48l1.2-2.28c.53-1,1-2,1.56-3.12h0c22.13,0,27.88,11.28,32.08,19.52a43.84,43.84,0,0,0,2.63,4.74c2.5,3.76,5.38,5.66,8.54,5.66h.5a9,9,0,0,0,7.1-5l.51-1v-1.16C159.39,240.1,150.81,218.49,134.59,200.74Zm-87.73-1.39-.34,29.48,0,2c-24.28,1.75-31.81,16.54-36,24.73-.14.26-.27.53-.4.79C12.33,229.91,27,211.51,38.79,200.8c2.58-2.34,5-4.32,7.18-5.93.32-.25.63-.48,1-.71ZM77.37,206c0-.88.25-1.08,1-1.34l.52-.16h1.72c1.24.31,1.38.61,1.39,1.42l-2.33,29.64Zm25.06-29.19.63,54.1q-1.14,2.69-2.35,5.13H89.52l2.32-29.57v-.38c0-2.7-.87-9.23-9-11.2h0a6.47,6.47,0,0,0-1.77-.24H78.17a6.34,6.34,0,0,0-1.78.26,7.46,7.46,0,0,0-1.49.56,10.91,10.91,0,0,0-7.36,10.7l2.33,29.87H58.67q-1.2-2.44-2.34-5.13l.63-54.1-7.3,3.83c-.2.11-2.3,1.22-5.52,3.39a349.06,349.06,0,0,1-3.6-51A241.28,241.28,0,0,1,48,73.93C58.6,32,75.7,9.89,79.69,9.84S100.79,32,111.41,73.93a241.89,241.89,0,0,1,7.44,59.12,350.45,350.45,0,0,1-3.6,51,63,63,0,0,0-5.53-3.39Zm46.44,78.73c-4.17-8.19-11.7-23-36-24.73l0-2-.34-29.48-.06-5.22c.31.23.64.46,1,.72a92.45,92.45,0,0,1,7.17,5.91c11.83,10.69,26.47,29.06,28.68,55.6Z"/></g></g></svg>