<svg xmlns="http://www.w3.org/2000/svg" viewBox="0 0 84.33 37.05"><defs><style>.cls-1{fill:#522950;}</style></defs><title>primary</title><g id="Layer_2" data-name="Layer 2"><g id="Layer_1-2" data-name="Layer 1"><path class="cls-1" d="M21.35,6.15h.91c2.78,0,4.6.94,5.45,2.84A2.87,2.87,0,0,1,28,10.1v.3a5.68,5.68,0,0,1-2.72,4.88.87.87,0,0,1-.46.13.93.93,0,0,1-.68-.34.68.68,0,0,1-.19-.45.84.84,0,0,1,.27-.56,4.42,4.42,0,0,0,2.1-3.74c0-1.41-1.14-2.25-3.41-2.5H21.5q-6.32,0-14.59,5.47-5.23,4-5.24,6.83v.08a2,2,0,0,0,1.6,2,14.46,14.46,0,0,0,3.87.46q2.3,0,8.81-.15c2.42,0,3.92.71,4.48,2.12a2,2,0,0,1,.08.61v.15a4.42,4.42,0,0,1-.61,2.06H20c2.39-.21,11.12-2.86,14.15-2.93.57,0,.87.74.84,1.08s-.26.68-.52.68h-.68A61,61,0,0,0,18,29.54q-4.5,3.72-7.74,3.72H9.42a2.82,2.82,0,0,1-2.51-1,1.11,1.11,0,0,1-.07-.46v-.07q0-2.47,10.78-4.11a4.35,4.35,0,0,0,1.22-2.2v-.15q0-1.14-3.27-1.14-4.63.15-8.43.15C3.27,24.3,1,23.41.23,21.64A4.13,4.13,0,0,1,0,20.5V20q0-4.1,7.9-9.34Q15.73,6.15,21.35,6.15ZM9.21,31.52a2.64,2.64,0,0,0,.74.07,10.3,10.3,0,0,0,5-1.82,28.64,28.64,0,0,0-5.7,1.6Q9.08,31.46,9.21,31.52Z"/><path class="cls-1" d="M34,21.65c0,.21,0,.42,0,.63l-7.66-.52h0a.43.43,0,0,1,0-.85L34,20.3A12,12,0,0,0,34,21.65Z"/><path class="cls-1" d="M35.1,16.87c-.08.19-.16.38-.23.58l-7-3.61h0a.44.44,0,0,1-.22-.57.42.42,0,0,1,.56-.21l7.59,2.61A10.52,10.52,0,0,0,35.1,16.87Z"/><path class="cls-1" d="M37.81,12.32a6.14,6.14,0,0,0-.42.47L32.08,6.91h0l0,0a.44.44,0,0,1,0-.61.43.43,0,0,1,.61,0c2,1.68,4,3.37,6.15,5.14A12,12,0,0,0,37.81,12.32Z"/><path class="cls-1" d="M42.09,9.39q-.29.12-.57.27L38.86,2.2h0a.05.05,0,0,1,0,0,.42.42,0,1,1,.78-.33c1.24,2.33,2.45,4.65,3.74,7.09A13,13,0,0,0,42.09,9.39Z"/><path class="cls-1" d="M47.24,8.36c-.21,0-.42,0-.63,0,.13-2.74.26-5.33.39-7.91h0a.06.06,0,0,1,0,0A.42.42,0,0,1,47.42,0a.44.44,0,0,1,.43.43c.25,2.62.48,5.23.74,8A12,12,0,0,0,47.24,8.36Z"/><path class="cls-1" d="M34.37,22.31l-.39,0c0-.21,0-.42,0-.63A12,12,0,0,1,34,20.3h.14C34.24,21,34.29,21.47,34.37,22.31Z"/><path class="cls-1" d="M59.7,16.87a5.83,5.83,0,0,1,.23.58L67,13.84h0a.44.44,0,0,0,.23-.57.43.43,0,0,0-.57-.21c-2.5.85-5,1.71-7.58,2.61A10.48,10.48,0,0,1,59.7,16.87Z"/><path class="cls-1" d="M57,12.32a6.29,6.29,0,0,1,.43.47l5.3-5.88h0l0,0a.43.43,0,0,0,0-.61.42.42,0,0,0-.6,0c-2,1.68-4,3.37-6.16,5.14A12,12,0,0,1,57,12.32Z"/><path class="cls-1" d="M52.71,9.39a5.94,5.94,0,0,1,.57.27L56,2.2h0a.08.08,0,0,0,0,0,.42.42,0,0,0-.22-.56.42.42,0,0,0-.56.23c-1.24,2.33-2.45,4.65-3.74,7.09A12.15,12.15,0,0,1,52.71,9.39Z"/><path class="cls-1" d="M60.94,25.82q-.33,1.26-.75,2.4a17.22,17.22,0,0,1-2.7,4.8,14,14,0,0,1-1.86,1.91c-.24.13-.48.26-.72.37a16.24,16.24,0,0,1-2.2.87l-.36.12H52.3l-.13,0-.5.13c-.5.13-1,.22-1.56.31a13.15,13.15,0,0,1-1.44.19,1.1,1.1,0,0,1-.26,0h0a8,8,0,0,1-.84,0h-1l-.64,0a12.93,12.93,0,0,1-1.84-.26,10.5,10.5,0,0,1-.4-2.84,9.59,9.59,0,0,1,2.68-1.32c3.24-.56,4.24.66,5.82-.34a10.45,10.45,0,0,1,2.16-1c.51-.19,1-.35,1.43-.55a4.43,4.43,0,0,0,1.73-1.17,3.2,3.2,0,0,0,.42-.58c.07-.14.41-1,.49-1.18a2.89,2.89,0,0,1,2.06-1.84C60.63,25.87,60.77,25.84,60.94,25.82Z"/><path class="cls-1" d="M57.6,30.93v.73c0,.47-.05.91-.11,1.36,0,.26-.06.52-.11.77,0,0,0,0,0,0a13.08,13.08,0,0,1-1.74,1.1c-.24.13-.48.26-.72.37a16.24,16.24,0,0,1-2.2.87l-.36.12H52.3l-.13,0a13.42,13.42,0,0,1,1.24-1.54l0,0a.32.32,0,0,0,.09-.08c.22-.21.4-.39.59-.59l0,0v0a4.48,4.48,0,0,0,.36-.4,3.45,3.45,0,0,0,.26-.28l.1-.12.18-.22a4.6,4.6,0,0,0,.44-.82.54.54,0,0,0,.08-.17h0s0,0,0,0h0s0,0,0,0v0h0a3.13,3.13,0,0,0,.17-.73v0a.58.58,0,0,0,0-.14v0a.14.14,0,0,0,0-.07h0c0-.06,0-.16,0-.27s0-.19,0-.29,0-.27,0-.38,0-.2,0-.24a2.9,2.9,0,0,1,1.06-2.54,3.73,3.73,0,0,1,.38-.28c.1.54.19,1.08.25,1.59h0v.05a2.7,2.7,0,0,0,0,.28V29a2.47,2.47,0,0,1,.05.38,0,0,0,0,1,0,0,.49.49,0,0,1,0,.12,7.76,7.76,0,0,1,0,.95s0,0,0,.07,0,.09,0,.13v0A2.26,2.26,0,0,1,57.6,30.93Z"/><path class="cls-1" d="M57.39,33.82h0a14.55,14.55,0,0,1-2.46,1.47,5.31,5.31,0,0,0,.21-1.52,1.48,1.48,0,0,0,0-.21,1.23,1.23,0,0,0,0-.2,1.87,1.87,0,0,0,0-.32.84.84,0,0,0,0-.17.53.53,0,0,0,0-.15,1.59,1.59,0,0,0-.07-.2s0-.05,0-.09h0a.25.25,0,0,0-.05-.11s0,0,0-.06l0,0,0-.08v0a1.75,1.75,0,0,1-.16-.27s0,0,0,0l0-.07c-.11-.18-.2-.36-.24-.42a.28.28,0,0,0,0-.08h0c-.06-.12-.11-.24-.16-.35h0c-.06-.17-.12-.33-.16-.49A2.63,2.63,0,0,1,54,28.59a3.24,3.24,0,0,1,.22-.4c.28.36.54.72.79,1.09l0,.06a.18.18,0,0,1,0,.07l.18.24,0,0c.06.07.1.15.16.23h0s0,0,0,0h0a.41.41,0,0,1,0,.09l0,0c0,.06.08.12.11.19l.06.1a.2.2,0,0,0,0,.08c.06.09.11.19.18.29a.1.1,0,0,1,0,0,.47.47,0,0,1,0,.1l.06.11a.52.52,0,0,1,.06.13c.24.43.46.86.66,1.3s.31.72.44,1.08c0,.1.07.2.11.29A0,0,0,0,1,57.39,33.82Z"/><path class="cls-1" d="M62.68,27.36a18.18,18.18,0,0,1-5.31,6.47,13.08,13.08,0,0,1-1.74,1.1c-.24.13-.48.26-.72.37a16.24,16.24,0,0,1-2.2.87l-.36.12H52.3l-.13,0-.5.13c-.5.13-1,.22-1.56.31a13.15,13.15,0,0,1-1.44.19,1.1,1.1,0,0,1-.26,0h0a8,8,0,0,1-.84,0h-1l-.64,0a12.93,12.93,0,0,1-1.84-.26c-.36-.07-.71-.16-1.06-.26a17.34,17.34,0,0,1-1.8-.61l-.64-.28a1.65,1.65,0,0,1-.26-.14c-.3-.14-.61-.28-.9-.44s-.48-.26-.71-.41a1.37,1.37,0,0,1-.2-.13l-.5-.33L37.8,34A15.84,15.84,0,0,1,33,28.61l.49-.33a28.84,28.84,0,0,1,6.07-2.21l.26-.08a13.53,13.53,0,0,1,8.29.5,25.13,25.13,0,0,0,3.46,1.14l1.52.28c-.27.95-1.27,1.57-2.69,1.63-.28,0-.56,0-.84,0s-1.13-.19-1.28-.19a5.29,5.29,0,0,0-2.74.78h0l-.33.22c-.42.3,1.21-.46,2.34-.12,1.32.4,2.92,1.51,4.33,1.51l.28,0a1.17,1.17,0,0,0,.26,0l.23-.05a.58.58,0,0,1,.14,0c.23-.09.45-.15.68-.22s.49-.11.74-.15h0a0,0,0,0,1,0,0h.14l.11,0h.19L55.81,31l.24,0h.06a3.71,3.71,0,0,0,.5-.09,1.2,1.2,0,0,0,.2,0l.09,0a4.15,4.15,0,0,0,.69-.19,3.63,3.63,0,0,0,1.47-1c.1-.11.64-.91.75-1s.18-.23.27-.33l.11-.11,0,0a4.71,4.71,0,0,1,.51-.42,2.66,2.66,0,0,1,1.5-.43A2.37,2.37,0,0,1,62.68,27.36Z"/><path class="cls-1" d="M70.44,25.07C72,22.48,74,18.61,76.72,14.66l1-1.34a9.41,9.41,0,0,1,.8-1.34c.36-.6.86-1.64,1.46-2.53a6.16,6.16,0,0,1,1.52-2.11,1.8,1.8,0,0,1,.35-.72,1.86,1.86,0,0,1,.87-.41,1.57,1.57,0,0,1,1.22.68c0,.06,0,.12.06.15a1.15,1.15,0,0,1,.2,1.25c-.06.18,0,.38-.08.62a4.66,4.66,0,0,1-.72.84l-2.14,2.44-.12.12c-.92,1.16-1.85,2.26-2.2,2.67a55.87,55.87,0,0,0-3.75,5.24,67.06,67.06,0,0,0-4.44,7.53,5.61,5.61,0,0,0-.62,2.41c.06.71,1.13.8,1.67.77a15.59,15.59,0,0,0,2.53-.42,30.4,30.4,0,0,0,5.08-1.9c1.34-.68,2.74-1.19,4.17-1.93.68-.33,1.13,0,.5.44-1.19.81-3.39,2.32-5.74,3.6a19.51,19.51,0,0,1-7.17,2.59c-1.75.09-3.42-.41-3.18-2.44A23.15,23.15,0,0,1,70.44,25.07Z"/><path class="cls-1" d="M76.39,16A24.55,24.55,0,0,1,68.83,21a18.72,18.72,0,0,1-2,.72,6.28,6.28,0,0,1-1.31.21l-4.66.32c0-.21,0-.42,0-.63a12,12,0,0,0-.07-1.35l4,.31a6.59,6.59,0,0,0,3.13-.51,40.18,40.18,0,0,0,9.23-6C84.16,8.29,76.39,16,76.39,16Z"/></g></g></svg>